<svg xmlns="http://www.w3.org/2000/svg" viewBox="0 0 24 19.94"><defs><style>.cls-1{fill:#303c42;}.cls-2{fill:#ff6f00;}.cls-3{fill:#e6e6e6;}.cls-4{opacity:0.1;}</style></defs><title>Asset 27</title><g id="Layer_2" data-name="Layer 2"><g id="Layer_1-2" data-name="Layer 1"><path class="cls-1" d="M19.5,16a4.47,4.47,0,0,0,1.45-8.71A8,8,0,0,0,5.61,5H5.5a5.48,5.48,0,1,0,0,11h6v1H11a.5.5,0,0,0-.5.5v.5h-7a.5.5,0,1,0,0,1h7v.5a.5.5,0,0,0,.5.5h2a.5.5,0,0,0,.5-.5v-.5h7a.5.5,0,1,0,0-1h-7v-.5a.5.5,0,0,0-.5-.5h-.5V16Zm-7,3h-1v-1h1Zm-7-4h0a4.44,4.44,0,0,1-.8-.08l-.24-.05a4.41,4.41,0,0,1-.53-.16l-.24-.09a4.45,4.45,0,0,1-.59-.32c-.12-.08-.23-.17-.35-.26l-.2-.16a4.49,4.49,0,0,1-1.05-1.36h0a4.42,4.42,0,0,1-.49-2A4.5,4.5,0,0,1,5.5,6a4.57,4.57,0,0,1,2.7.9.5.5,0,1,0,.6-.8,5.59,5.59,0,0,0-2.16-1A7,7,0,0,1,19.92,7c-.14,0-.28,0-.42,0a.5.5,0,1,0,0,1,3.48,3.48,0,0,1,1.26.24h0a3.46,3.46,0,0,1,.36.17l.18.1.3.2.18.15c.09.07.17.14.25.23a3.52,3.52,0,0,1,.34.41c0,.06.08.13.11.19a3.45,3.45,0,0,1,.19.35l.09.21a3.41,3.41,0,0,1,.13.4c0,.07,0,.13,0,.2a3.44,3.44,0,0,1,.06.63h0A3.5,3.5,0,0,1,19.5,15Z"/><rect class="cls-2" x="11.5" y="17.94" width="1" height="1"/><path class="cls-3" d="M23,11.46h0A3.5,3.5,0,0,1,19.5,15h0A3.5,3.5,0,0,0,23,11.46Z"/><path class="cls-3" d="M2.55,13.83a4.57,4.57,0,0,1-1.05-1.36A4.49,4.49,0,0,0,2.55,13.83Z"/><path class="cls-3" d="M17.5,13A3.5,3.5,0,0,0,21,9.47a3.45,3.45,0,0,0-.24-1.25A3.48,3.48,0,0,0,19.5,8a.5.5,0,1,1,0-1c.15,0,.28,0,.42,0A7,7,0,0,0,6.64,5.12a5.59,5.59,0,0,1,2.16,1,.5.5,0,1,1-.6.8A4.57,4.57,0,0,0,5.5,6,4.5,4.5,0,0,0,1,10.47a4.42,4.42,0,0,0,.49,2,4.45,4.45,0,0,0,2,.49Z"/><polygon class="cls-1" points="20.76 8.22 20.76 8.22 20.76 8.22 20.76 8.22"/><polygon class="cls-4" points="20.76 8.22 20.76 8.22 20.76 8.22 20.76 8.22"/><polygon class="cls-1" points="1.49 12.47 1.49 12.47 1.49 12.47 1.49 12.47"/><polygon class="cls-4" points="1.49 12.47 1.49 12.47 1.49 12.47 1.49 12.47"/><path class="cls-3" d="M19.5,15A3.5,3.5,0,0,0,23,11.46a3.44,3.44,0,0,0-.06-.63c0-.07,0-.13,0-.2a3.41,3.41,0,0,0-.13-.4L22.68,10a3.45,3.45,0,0,0-.19-.35c0-.06-.07-.13-.11-.19A3.52,3.52,0,0,0,22,9.06c-.08-.08-.16-.15-.25-.23l-.18-.15-.3-.2-.18-.1a3.46,3.46,0,0,0-.36-.17h0A3.45,3.45,0,0,1,21,9.47,3.5,3.5,0,0,1,17.5,13H3.5a4.45,4.45,0,0,1-2-.49h0a4.57,4.57,0,0,0,1.05,1.36l.2.16c.11.09.23.18.35.26a4.45,4.45,0,0,0,.59.32l.24.09a4.41,4.41,0,0,0,.53.16l.24.05a4.44,4.44,0,0,0,.8.08h14Z"/><path class="cls-4" d="M19.5,15A3.5,3.5,0,0,0,23,11.46a3.44,3.44,0,0,0-.06-.63c0-.07,0-.13,0-.2a3.41,3.41,0,0,0-.13-.4L22.68,10a3.45,3.45,0,0,0-.19-.35c0-.06-.07-.13-.11-.19A3.52,3.52,0,0,0,22,9.06c-.08-.08-.16-.15-.25-.23l-.18-.15-.3-.2-.18-.1a3.46,3.46,0,0,0-.36-.17h0A3.45,3.45,0,0,1,21,9.47,3.5,3.5,0,0,1,17.5,13H3.5a4.45,4.45,0,0,1-2-.49h0a4.57,4.57,0,0,0,1.05,1.36l.2.16c.11.09.23.18.35.26a4.45,4.45,0,0,0,.59.32l.24.09a4.41,4.41,0,0,0,.53.16l.24.05a4.44,4.44,0,0,0,.8.08h14Z"/></g></g></svg>