<svg xmlns="http://www.w3.org/2000/svg"  viewBox="0 0 24 24">
    <g fill="none" fill-rule="evenodd">
        <path fill="#303C42" d="M11.454 22.909h1.091v-1.091h-1.091v1.091zm-8.291-7.636h-.981c-.602 0-1.091-.49-1.091-1.091V9.818c0-.601.489-1.091 1.091-1.091h19.636c.601 0 1.091.49 1.091 1.091v4.364c0 .601-.49 1.091-1.091 1.091H3.163zM2.182 1.091h19.636c.601 0 1.091.489 1.091 1.091v4.363c0 .602-.49 1.091-1.091 1.091H2.182a1.092 1.092 0 0 1-1.091-1.091V2.182c0-.602.489-1.091 1.091-1.091zm19.636 21.273a.545.545 0 0 0-.545-.546h-7.637v-.545a.545.545 0 0 0-.545-.546h-.546v-4.363h9.273A2.185 2.185 0 0 0 24 14.182V9.818c0-.655-.296-1.236-.754-1.636.458-.4.754-.982.754-1.637V2.182A2.184 2.184 0 0 0 21.818 0H2.182A2.183 2.183 0 0 0 0 2.182v4.363C0 7.2.296 7.782.754 8.182.296 8.582 0 9.163 0 9.818v4.364c0 1.203.978 2.182 2.182 2.182h9.272v4.363h-.545a.545.545 0 0 0-.545.546v.545H2.727a.545.545 0 0 0 0 1.091h7.637v.545c0 .302.243.546.545.546h2.182a.545.545 0 0 0 .545-.546v-.545h7.637a.545.545 0 0 0 .545-.545z"/>
        <path fill="#E65100" d="M11.454 22.909h1.091v-1.091h-1.091z"/>
        <path fill="#E6E6E6" d="M8.182 14.181a.545.545 0 0 1-.546-.544v-3.274a.545.545 0 1 1 1.091 0v3.274a.545.545 0 0 1-.545.544zm-2.182 0a.546.546 0 0 1-.546-.544v-3.274a.545.545 0 0 1 1.091 0v3.274A.544.544 0 0 1 6 14.18zm-2.182 0a.544.544 0 0 1-.545-.544v-3.274a.545.545 0 1 1 1.091 0v3.273a.545.545 0 0 1-.546.546zm15.818-1.09a1.091 1.091 0 1 1 0-2.183 1.091 1.091 0 0 1 0 2.183zm-3.272 0a1.09 1.09 0 1 1-.001-2.181 1.09 1.09 0 0 1 .001 2.18zm4.472 2.182c.541 0 .982-.49.982-1.091V9.817c0-.601-.441-1.09-.982-1.09H3.163c-.541 0-.981.489-.981 1.09v4.364c0 .601.44 1.09.981 1.09h17.673zM3.818 2.182c.301 0 .545.244.545.545V6a.544.544 0 1 1-1.09 0V2.727c0-.301.243-.545.545-.545m2.182 0c.301 0 .545.244.545.545V6a.544.544 0 1 1-1.09 0V2.727c0-.301.243-.545.545-.545m2.182 0c.301 0 .545.244.545.545V6a.544.544 0 1 1-1.09 0V2.727c0-.301.243-.545.545-.545m8.181 1.091a1.09 1.09 0 1 1 .001 2.18 1.09 1.09 0 0 1 0-2.18m3.272 0a1.091 1.091 0 1 1 0 2.182 1.091 1.091 0 0 1 0-2.182M2.182 2.182v4.363c0 .602.44 1.091.981 1.091h17.673c.541 0 .982-.489.982-1.091V2.182c0-.602-.44-1.091-.982-1.091H3.163c-.54 0-.98.489-.98 1.091"/>
        <path fill="#E6E6E6" d="M2.182 14.181V9.82c0-.603.44-1.092.981-1.092h-.981c-.602 0-1.091.49-1.091 1.091v4.364c0 .601.489 1.09 1.091 1.09h.981c-.541 0-.981-.489-.981-1.09"/>
        <path fill="#FFF" d="M2.182 14.181V9.82c0-.603.44-1.092.981-1.092h-.981c-.602 0-1.091.49-1.091 1.091v4.364c0 .601.489 1.09 1.091 1.09h.981c-.541 0-.981-.489-.981-1.09"/>
        <path fill="#E6E6E6" d="M21.818 9.818v4.363c0 .602-.44 1.092-.982 1.092h.982c.601 0 1.091-.49 1.091-1.092V9.818c0-.602-.49-1.09-1.09-1.09h-.983c.541 0 .982.488.982 1.09M1.09 6.545c0 .602.49 1.091 1.092 1.091h.982c-.541 0-.982-.489-.982-1.09V2.181c0-.602.44-1.092.982-1.092h-.982c-.601 0-1.091.49-1.091 1.092v4.363z"/>
        <path fill="#FFF" d="M1.09 6.545c0 .602.49 1.091 1.092 1.091h.982c-.541 0-.982-.489-.982-1.09V2.181c0-.602.44-1.092.982-1.092h-.982c-.601 0-1.091.49-1.091 1.092v4.363z"/>
        <path fill="#E6E6E6" d="M21.818 2.182v4.363c0 .601-.44 1.091-.982 1.091h.982c.601 0 1.091-.49 1.091-1.09V2.181c0-.601-.49-1.091-1.09-1.091h-.983c.541 0 .982.49.982 1.09"/>
        <path fill="#303C42" d="M3.273 6a.544.544 0 1 0 1.09 0V2.728a.545.545 0 1 0-1.09 0V6zM5.455 6a.544.544 0 1 0 1.09 0V2.728a.545.545 0 1 0-1.09 0V6zM7.636 6a.545.545 0 1 0 1.091 0V2.728a.545.545 0 1 0-1.09 0V6zM18.545 4.364a1.091 1.091 0 1 0 2.182 0 1.091 1.091 0 0 0-2.182 0M15.273 4.364a1.09 1.09 0 1 0 2.18 0 1.09 1.09 0 0 0-2.18 0M4.364 10.364a.544.544 0 1 0-1.091 0v3.272a.545.545 0 1 0 1.09 0v-3.272zM6.545 10.364a.544.544 0 1 0-1.09 0v3.272a.545.545 0 1 0 1.09 0v-3.272zM8.727 10.364a.544.544 0 1 0-1.09 0v3.272a.545.545 0 1 0 1.09 0v-3.272zM19.636 10.91a1.091 1.091 0 1 0 0 2.181 1.091 1.091 0 0 0 0-2.182M17.454 12a1.09 1.09 0 1 0-2.18-.001 1.09 1.09 0 0 0 2.18 0"/>
    </g>
</svg>
