<svg xmlns="http://www.w3.org/2000/svg"  viewBox="0 0 16 16">
    <g fill="#1991EB" fill-rule="nonzero">
        <path d="M8 16c-4.403 0-8-3.597-8-8 0-4.403 3.597-8 8-8 4.403 0 8 3.597 8 8 0 4.403-3.597 8-8 8zM8 .975a6.986 6.986 0 0 0-6.992 6.991A6.986 6.986 0 0 0 8 14.958a6.986 6.986 0 0 0 6.992-6.992A6.986 6.986 0 0 0 8 .975z"/>
        <path d="M11.453 8.518H7.997a.537.537 0 0 1-.523-.523V4.539c0-.279.244-.523.523-.523.28 0 .524.244.524.523v2.932h2.932c.279 0 .523.245.523.524a.514.514 0 0 1-.523.523z"/>
        <path d="M7.997 11.974a.537.537 0 0 1-.523-.524V8.518H4.542a.537.537 0 0 1-.524-.523c0-.28.244-.524.524-.524h3.455c.28 0 .524.245.524.524v3.455a.514.514 0 0 1-.524.524z"/>
    </g>
</svg>
