<svg xmlns="http://www.w3.org/2000/svg" viewBox="0 0 24 24"><defs><style>.cls-1{fill:#303c42;}.cls-2{fill:#f2f2f2;}.cls-3{fill:#e6e6e6;}</style></defs><title>Asset 36</title><g id="Layer_2" data-name="Layer 2"><g id="Layer_1-2" data-name="Layer 1"><polygon class="cls-1" points="1.74 8.83 1.74 8.83 1.74 8.83 1.74 8.83"/><path class="cls-1" d="M1.81,8.8a1.07,1.07,0,0,1,.37-.08A1,1,0,0,0,1.81,8.8Z"/><path class="cls-1" d="M21.82,15.27h0a1.09,1.09,0,0,0,1.09-1.09h0A1.09,1.09,0,0,1,21.82,15.27Z"/><path class="cls-1" d="M16.78,0H7.22A2.71,2.71,0,0,0,4.9,1.29L.26,8.79a2.17,2.17,0,0,0-.26,1v4.36a2.17,2.17,0,0,0,.75,1.64A2.17,2.17,0,0,0,0,17.45v4.36A2.18,2.18,0,0,0,2.18,24H21.82A2.18,2.18,0,0,0,24,21.82V17.45a2.17,2.17,0,0,0-.75-1.64A2.17,2.17,0,0,0,24,14.18V9.82h0a2.17,2.17,0,0,0-.26-1L19.1,1.29A2.71,2.71,0,0,0,16.78,0Zm6.13,21.82a1.09,1.09,0,0,1-1.09,1.09H2.18a1.09,1.09,0,0,1-1.09-1.09V17.45a1.09,1.09,0,0,1,1.09-1.09H21.82a1.15,1.15,0,0,1,1.09,1.09Zm0-12v4.36h0a1.09,1.09,0,0,1-1.09,1.09H2.18a1.09,1.09,0,0,1-1.09-1.09V9.82a1.09,1.09,0,0,1,.65-1h0l.07,0a1,1,0,0,1,.37-.08H21.82A1.09,1.09,0,0,1,22.91,9.82ZM21.74,7.64H2.26L5.82,1.87a1.63,1.63,0,0,1,1.39-.78h9.57a1.63,1.63,0,0,1,1.39.78Z"/><path class="cls-1" d="M21.82,16.36a1.07,1.07,0,0,1,.87.46,1.07,1.07,0,0,0-.87-.46h0Z"/><path class="cls-2" d="M16.78,1.09H7.22a1.63,1.63,0,0,0-1.39.78L2.26,7.64H21.74L18.18,1.87A1.63,1.63,0,0,0,16.78,1.09Z"/><path class="cls-3" d="M22.68,16.82a1.06,1.06,0,0,1,.23.63v4.36a1.09,1.09,0,0,1-1.09,1.09,1.09,1.09,0,0,0,1.09-1.09V17.45A1.06,1.06,0,0,0,22.68,16.82Z"/><path class="cls-3" d="M22.91,21.82V17.45a1.14,1.14,0,0,0-1.09-1.09H9.27l6.55,6.55h6A1.09,1.09,0,0,0,22.91,21.82Zm-6.55-1.09a1.09,1.09,0,1,1,1.09-1.09A1.09,1.09,0,0,1,16.36,20.73Zm3.27,0a1.09,1.09,0,1,1,1.09-1.09A1.09,1.09,0,0,1,19.64,20.73Z"/><path class="cls-3" d="M9.27,16.36H2.18a1.09,1.09,0,0,0-1.09,1.09v4.36a1.09,1.09,0,0,0,1.09,1.09H15.82ZM3.82,21.82a.55.55,0,0,1-.55-.55V18a.55.55,0,0,1,1.09,0v3.27A.55.55,0,0,1,3.82,21.82Zm2.18,0a.55.55,0,0,1-.55-.55V18a.55.55,0,0,1,1.09,0v3.27A.55.55,0,0,1,6,21.82Zm2.18,0a.55.55,0,0,1-.55-.55V18a.55.55,0,0,1,1.09,0v3.27A.55.55,0,0,1,8.18,21.82Z"/><path class="cls-3" d="M1.74,8.83l.07,0Z"/><path class="cls-3" d="M6,14.18a.55.55,0,0,1-.55-.55V12.55L4.36,11.45v2.18a.55.55,0,1,1-1.09,0V10.36h0L1.74,8.83a1.09,1.09,0,0,0-.65,1v4.36a1.09,1.09,0,0,0,1.09,1.09h6L6.55,13.64A.55.55,0,0,1,6,14.18Z"/><path class="cls-3" d="M2.18,8.73a1.07,1.07,0,0,0-.37.08l-.07,0h0l1.54,1.54a.55.55,0,0,1,1.09,0v1.09l1.09,1.09V10.36a.55.55,0,0,1,1.09,0v3.27h0l1.64,1.64H21.82a1.09,1.09,0,0,0,1.09-1.09V9.82a1.09,1.09,0,0,0-1.09-1.09Zm17.45,2.18A1.09,1.09,0,1,1,18.55,12,1.09,1.09,0,0,1,19.64,10.91Zm-3.27,0A1.09,1.09,0,1,1,15.27,12,1.09,1.09,0,0,1,16.36,10.91ZM8.18,14.18a.55.55,0,0,1-.55-.55V10.36a.55.55,0,0,1,1.09,0v3.27A.55.55,0,0,1,8.18,14.18Z"/><path class="cls-1" d="M4.36,11.45V10.36a.55.55,0,0,0-1.09,0Z"/><path class="cls-1" d="M3.27,13.64a.55.55,0,1,0,1.09,0V11.45L3.27,10.36h0Z"/><path class="cls-1" d="M6.55,13.64h0V10.36a.55.55,0,0,0-1.09,0v2.18Z"/><path class="cls-1" d="M5.45,13.64a.55.55,0,0,0,1.09,0L5.45,12.55Z"/><path class="cls-1" d="M8.73,10.36a.55.55,0,0,0-1.09,0v3.27a.55.55,0,1,0,1.09,0Z"/><circle class="cls-1" cx="19.64" cy="12" r="1.09"/><circle class="cls-1" cx="16.36" cy="12" r="1.09"/><path class="cls-1" d="M4.36,18a.55.55,0,0,0-1.09,0v3.27a.55.55,0,0,0,1.09,0Z"/><path class="cls-1" d="M6.55,18a.55.55,0,0,0-1.09,0v3.27a.55.55,0,0,0,1.09,0Z"/><path class="cls-1" d="M8.73,18a.55.55,0,0,0-1.09,0v3.27a.55.55,0,0,0,1.09,0Z"/><circle class="cls-1" cx="19.64" cy="19.64" r="1.09"/><circle class="cls-1" cx="16.36" cy="19.64" r="1.09"/></g></g></svg>